**ABCDEFGHIJKLMNOPQRSTUVWXYZabcdefghijklmnopqrstuvwxyz**************************
**PARASOLID !"#$%&'()*+,-./:;<=>?@[\]^_`{|}~0123456789**************************
**PART1;
MC=AMD64;
MC_MODEL=AMD64 Family 23 Model 8 Stepping 2, AuthenticAMD;
MC_ID=unknown;
OS=Windows_NT;
OS_RELEASE=unknown;
FRU=Parasolid Version 33.1, build 255,  1- 8-2022;
APPL=SOLIDWORKS 2022-2022167;
SITE=;
USER=unknown;
FORMAT=text;
GUISE=transmit;
KEY=FILEmakeProjectedPlanarWire.x_t;
DATE=Sun Dec 11 23:35:52 2022;
**PART2;
SCH=SCH_3301255_33103;
USFLD_SIZE=0;
**PART3;
**END_OF_HEADER*****************************************************************
T51 : TRANSMIT FILE created by modeller version 330125523 SCH_3301255_33103_1300
6230 0 12 35 CCCI7 lattice222 0 CCCI4 mesh1006 0 I8 polyline1008 0 CCCCCCCDI5 ow
ner1040 0 CCCCCCI13 boundary_mesh1006 0 I17 boundary_polyline1008 0 CCCA16 index
_map_offset0 0 1 dA9 index_map82 0 A17 node_id_index_map82 0 A20 schema_embeddin
g_map82 0 A5 child12 0 A14 lowest_node_id0 0 1 dA16 mesh_offset_data206 0 Z1 71
 0 2 0 0 0 0 0 0 0 1e3 1e-8 0 3 0 1 0 3 1 4 5 6 7 0 0 8 9 10 0 0 0 0 0 0 0 70 11
 CI9 list_type0 0 1 uI10 notransmit0 0 1 lCCCDCCDI12 finger_index0 0 1 dI12 fing
er_block1012 0 CZ2 0 4 T1 0 0 1 20 1 11 11 13 255 4 60 0 1 0 12 0 0 8 12 51 255
 5 10 0 12 0 0 13 +.025056511174362 .02944604058238915 .01335660260391632 -1 -48
7617677579594e-43 -3491481338843135e-30 .01003013768445232 -3491481338843135e-30
 0 1 31 255 6 41 0 9 14 0 0 +-.033943488825638 .02944604058238915 .0133566026039
161 -1 -487617677579594e-43 -3491481338843135e-30 -3491481338843135e-30 0 1 .010
03013768445232 29 255 7 53 0 10 15 0 .02505651117436195 .03539679159283595 .0214
318290308424 19 8 CCCCCCCA5 owner12 0 Z8 59 0 1 0 0 4 V0 16 255 9 39 0 ?16 0 17
 6 0 0 1 18 255 10 51 0 18 0 19 7 1085027575168452e-20 1 17 255 18 0 0 0 0 10 20
 21 0 22 -18 19 48 0 23 10 24 15 108333531906477e-19 1 17 23 0 25 22 26 19 27 28
 29 30 +18 24 45 0 26 19 31 32 108502754607782e-19 1 29 15 50 0 19 32 7 .0250565
1117436195 .02349529954675 .02143181536096005 29 32 47 0 24 33 15 .0250565111743
62 .02349528957177015 .00528137617675734 29 33 44 0 31 0 32 .025056511174362 .03
539678161783135 .00528138984713877 18 31 42 0 20 24 0 33 1083335352075844e-20 1
 17 20 0 25 26 22 31 18 21 34 35 +15 255 25 6 0 20 12 36 17 26 0 25 23 20 24 35
 37 38 27 +17 22 0 25 20 23 10 30 17 14 0 +16 21 22 0 1e-5 20 37 0 0 0 0 1 133 2
55 34 11 0 20 0 39 0 +39 .02505651117436195 .03539628661298405 .0214311449528337
 .025056511174362 .03539628664497195 .00528206027857127 .1010750945438856 .39892
49048256105 17 35 0 0 0 0 31 26 37 0 0 -16 37 27 0 1e-5 26 28 21 0 0 0 1 16 28 3
1 0 1e-5 23 17 37 0 0 0 1 16 17 35 0 1e-5 22 9 28 0 0 0 1 137 255 39 19 0 1 34 3
8 40 +5 41 0 ?133 38 14 0 26 39 29 0 +39 .025056511174362 .03539628664497195 .00
528206027857127 .025056511174362 .02349579455179425 .00528206025499894 .39892490
48256105 .601075094543886 141 255 40 34 42 43 39 134 255 41 0 0 0 0 0 0 +44 45 1
36 255 44 1 2 2 2 5 FFF1 46 47 48 135 255 45 1 0 45 255 4 46 0 -325569031756396e
-33 6.28318530717959 -325569031756396e-33 127 255 2 47 2 2 128 255 2 48 0 1 141
 42 14 49 40 39 141 43 38 40 49 39 141 49 29 43 42 39 133 29 17 0 23 38 14 0 +39
 .025056511174362 .02349579455179425 .00528206025499894 .02505651117436195 .0234
9579451980635 .02143114492926135 .601075094543886 .89892490482561 133 14 20 0 22
 29 6 0 +39 .02505651117436195 .02349579451980635 .02143114492926135 .0250565111
7436195 .03539628661298405 .0214311449528337 .89892490482561 1.101075094543886 1
7 30 0 0 0 0 19 22 17 0 0 -17 27 0 0 0 0 24 23 28 0 0 -14 255 12 1 50 ?0 0 25 4
 5 +0 0 0 0 4 15 36 21 0 51 12 0 17 51 0 36 51 51 0 16 9 0 0 -17 16 0 0 0 0 0 51
 9 0 0 +81 255 1 50 63 52 12 0 0 0 0 53 80 255 1 52 54 55 9000 1 1 1 1 1 1 1 1 0
 FFFFTFTFFFFFFF1 82 255 1 53 -24248182 79 255 14 55 SWEntUnchanged141 13 39 13 1
3 5 74 4 CI16 index_map_offset0 0 1 dCCZ20 11 1 0 0 50 0 0 0 0 0 0 0 0 0 0 0 0 0
 0 0 0 0 0 0 1 0 
